<svg width="2726" height="1682" xmlns="http://www.w3.org/2000/svg" xmlns:xlink="http://www.w3.org/1999/xlink" overflow="hidden"><defs><clipPath id="clip0"><rect x="-17" y="359" width="2726" height="1682"/></clipPath></defs><g clip-path="url(#clip0)" transform="translate(17 -359)"><rect x="1345" y="955" width="426" height="373" fill="#4472C4"/><text fill="#FFFFFF" font-family="Consolas,Consolas_MSFontService,sans-serif" font-weight="400" font-size="73" transform="matrix(1 0 0 1 1397.99 1122)">Geometry <tspan font-size="73" x="40.1043" y="88">Shader</tspan></text><rect x="169" y="955" width="425" height="373" fill="#4472C4"/><text fill="#FFFFFF" font-family="Consolas,Consolas_MSFontService,sans-serif" font-weight="400" font-size="73" transform="matrix(1 0 0 1 261.134 1122)">Vertex <tspan font-size="73" x="0" y="88">Shader</tspan></text><path d="M594 1134.12 1310.71 1134.13 1310.71 1147.88 594 1147.87ZM1303.84 1120.38 1345.09 1141 1303.84 1161.63Z" fill="#4472C4"/><text font-family="Consolas,Consolas_MSFontService,sans-serif" font-weight="400" font-size="69" transform="matrix(1 0 0 1 685.818 742)">o<tspan font-size="69" x="37.8125" y="0">ut VS</tspan><tspan font-size="69" x="226.875" y="0">_OUT</tspan><tspan font-size="69" x="0" y="82">{</tspan><tspan font-size="69" x="165" y="165">vec3 position</tspan><tspan font-size="69" x="165" y="247">int </tspan><tspan font-size="69" x="330" y="247">vid</tspan><tspan font-size="69" x="0" y="330">}</tspan></text><path d="M1.12446-9.09744 570.922 61.3307 568.673 79.5256-1.12446 9.09744ZM573.171 43.1358C588.244 44.9989 598.952 58.7284 597.089 73.8015 595.226 88.8747 581.497 99.5835 566.424 97.7205 551.351 95.8574 540.642 82.1279 542.505 67.0548 544.368 51.9816 558.097 41.2728 573.171 43.1358Z" fill="#4472C4" transform="matrix(-1 0 0 1 1862.8 1675)"/><text font-family="Consolas,Consolas_MSFontService,sans-serif" font-weight="400" font-size="69" transform="matrix(1 0 0 1 1326.1 1410)">GL_TRIANGLES</text><path d="M6.10451-6.83833 264.563 223.886 252.354 237.562-6.10451 6.83833ZM-18.3135 20.515C-29.6437 10.4007-30.6293-6.98343-20.515-18.3135-10.4007-29.6437 6.98343-30.6293 18.3135-20.515 29.6437-10.4007 30.6293 6.98343 20.515 18.3135 10.4007 29.6437-6.98343 30.6293-18.3135 20.515ZM276.772 210.209C288.103 220.323 289.088 237.707 278.974 249.037 268.86 260.368 251.475 261.353 240.145 251.239 228.815 241.125 227.83 223.74 237.944 212.41 248.058 201.08 265.442 200.095 276.772 210.209Z" fill="#4472C4" transform="matrix(-1 0 0 1 1559.46 1515)"/><path d="M1851.42 1675.42 1560 1517" stroke="#4472C4" stroke-width="18.3333" stroke-miterlimit="8" fill="none" fill-rule="evenodd"/><path d="M1849.5 1670C1849.5 1665.31 1853.08 1661.5 1857.5 1661.5 1861.92 1661.5 1865.5 1665.31 1865.5 1670 1865.5 1674.69 1861.92 1678.5 1857.5 1678.5 1853.08 1678.5 1849.5 1674.69 1849.5 1670Z" stroke="#FF0000" stroke-width="38.9583" stroke-miterlimit="8" fill="#4472C4" fill-rule="evenodd"/><text fill="#FF0000" font-family="Consolas,Consolas_MSFontService,sans-serif" font-weight="400" font-size="69" transform="matrix(1 0 0 1 1120.34 1898)">TF_VPOS<tspan font-size="69" x="330" y="0">= VS_OUT[</tspan><tspan font-size="69" x="670.313" y="0">i</tspan>].position<tspan font-size="69" x="0" y="83">TF_VID</tspan><tspan font-size="69" x="330" y="83">= VS_OUT[</tspan><tspan font-size="69" x="670.313" y="83">i</tspan>].vid</text><path d="M1771 1134.12 2110.28 1134.13 2110.28 1147.88 1771 1147.87ZM2103.41 1120.38 2144.66 1141 2103.41 1161.63Z" fill="#4472C4"/><text font-family="Consolas,Consolas_MSFontService,sans-serif" font-weight="400" font-size="69" transform="matrix(1 0 0 1 1881.81 742)">o<tspan font-size="69" x="37.8125" y="0">ut GS_OUT</tspan><tspan font-size="69" x="0" y="82">{</tspan><tspan font-size="69" x="151.25" y="165">vec3 TF_VPOS;</tspan><tspan font-size="69" x="151.25" y="247">float TF_VID;</tspan><tspan font-size="69" x="0" y="330">};</tspan><tspan fill="#FF0000" font-size="83" x="-1848.81" y="746">v</tspan><tspan fill="#FF0000" font-size="83" x="-1803.55" y="746">id = </tspan><tspan fill="#FF0000" font-size="83" x="-1577.25" y="746">gl_VertexID</tspan><tspan font-weight="700" font-size="83" x="-1118.38" y="-280">extract_triangle_</tspan><tspan font-weight="700" font-size="83" x="-348.954" y="-280">mesh</tspan><tspan font-weight="700" font-size="83" x="-167.913" y="-280">()</tspan></text></g></svg>